<?xml version="1.0" encoding="iso-8859-1"?>
<!-- Generator: Adobe Illustrator 19.0.0, SVG Export Plug-In . SVG Version: 6.00 Build 0)  -->
<svg version="1.1" id="Capa_1" xmlns="http://www.w3.org/2000/svg" xmlns:xlink="http://www.w3.org/1999/xlink" x="0px" y="0px"
	 viewBox="0 0 512 512" style="enable-background:new 0 0 512 512;" xml:space="preserve">
<path style="fill:#757574;" d="M424.687,345.19v25.298h-31.585V345.19c0-5.451,3.997-9.866,8.921-9.866h13.732
	C420.69,335.324,424.687,339.739,424.687,345.19z"/>
<path style="fill:#5B5B59;" d="M410.613,348.58v-13.256h-8.59c-4.924,0-8.921,4.415-8.921,9.867v25.298h31.585v-11.952h-4.119
	C415.07,358.536,410.613,354.078,410.613,348.58z"/>
<path id="SVGCleanerId_0" style="fill:#DDDBC7;" d="M446.331,375.542v17.225H368.46v-17.225c0-4.636,3.76-8.386,8.386-8.386h61.1
	C442.581,367.157,446.331,370.906,446.331,375.542z"/>
<g>
	<path id="SVGCleanerId_0_1_" style="fill:#DDDBC7;" d="M446.331,375.542v17.225H368.46v-17.225c0-4.636,3.76-8.386,8.386-8.386
		h61.1C442.581,367.157,446.331,370.906,446.331,375.542z"/>
</g>
<path style="fill:#C4C1AE;" d="M413.279,367.157h-36.433c-4.626,0-8.386,3.75-8.386,8.386v17.225h36.432v-17.225
	C404.893,370.906,408.653,367.157,413.279,367.157z"/>
<path style="fill:#ED3124;" d="M299.345,139.806v83.743l-236.942-2.06v-81.683c0-6.377,4.749-11.548,10.611-11.548h215.72
	C294.596,128.258,299.345,133.429,299.345,139.806z"/>
<path style="fill:#CECBB6;" d="M147.908,8.963v202.225h-32.966V8.963c0-4.955,4.007-8.963,8.963-8.963h15.041
	C143.901,0,147.908,4.007,147.908,8.963z"/>
<g>
	<path style="fill:#D8A013;" d="M246.806,160.399v50.788H213.84v-50.788c0-4.955,4.007-8.963,8.963-8.963h15.041
		C242.798,151.437,246.806,155.444,246.806,160.399z"/>
	<path style="fill:#D8A013;" d="M279.771,160.399v50.788h-32.966v-50.788c0-4.955,4.007-8.963,8.963-8.963h15.041
		C275.764,151.437,279.771,155.444,279.771,160.399z"/>
</g>
<path style="fill:#C68E10;" d="M271.53,151.473c-0.238-0.02-0.478-0.036-0.721-0.036h-15.041c-4.955,0-8.963,4.007-8.963,8.963
	v50.788h16.483v-50.788C263.289,155.687,266.914,151.84,271.53,151.473z"/>
<path style="fill:#D8A013;" d="M114.942,211.187H81.977v-50.788c0-4.947,4.007-8.963,8.963-8.963h15.041
	c4.955,0,8.963,4.016,8.963,8.963C114.942,160.399,114.942,211.187,114.942,211.187z"/>
<path style="fill:#C68E10;" d="M106.701,151.473c-0.238-0.02-0.478-0.036-0.721-0.036H90.939c-4.955,0-8.963,4.016-8.963,8.963
	v50.788H98.46v-50.788C98.46,155.695,102.085,151.841,106.701,151.473z"/>
<path style="fill:#DDDBC7;" d="M299.345,185.742v315.647c0,5.862-4.749,10.611-10.611,10.611H73.014
	c-5.862,0-10.611-4.749-10.611-10.611V185.742c0-5.862,4.749-10.611,10.611-10.611h26.105c4.399,0,8.18,3.111,9.035,7.428
	l3.348,16.977c1.339,6.768,7.273,11.651,14.175,11.651h110.394c6.902,0,12.836-4.883,14.175-11.651l3.348-16.977
	c0.855-4.316,4.636-7.428,9.035-7.428h26.105C294.596,175.131,299.345,179.88,299.345,185.742z"/>
<path style="fill:#C4C1AE;" d="M173.148,501.389V211.187h-47.471c-6.902,0-12.836-4.883-14.175-11.651l-3.348-16.977
	c-0.855-4.316-4.636-7.428-9.035-7.428H73.014c-5.862,0-10.611,4.749-10.611,10.611v315.647c0,5.862,4.749,10.611,10.611,10.611
	h110.744C177.897,512,173.148,507.251,173.148,501.389z"/>
<path style="fill:#ED3124;" d="M299.345,365.117v136.272c0,5.862-4.749,10.611-10.611,10.611H73.014
	c-5.862,0-10.611-4.749-10.611-10.611V365.117l108.427-55.321c5.985-3.06,13.073-3.07,19.069-0.041L299.345,365.117z"/>
<path style="fill:#E00E0E;" d="M173.148,501.389V308.782c-0.787,0.289-1.562,0.626-2.318,1.013L62.403,365.116v136.273
	c0,5.495,4.174,10.012,9.526,10.556c0.356,0.036,0.719,0.055,1.085,0.055h110.744C177.897,512,173.148,507.251,173.148,501.389z"/>
<path style="fill:#DDDBC7;" d="M268.439,433.428v22.19c0,7.809-6.336,14.144-14.144,14.144H107.453
	c-7.809,0-14.144-6.336-14.144-14.144v-22.19c0-7.809,6.336-14.144,14.144-14.144h146.842
	C262.104,419.284,268.439,425.619,268.439,433.428z"/>
<path style="fill:#C4C1AE;" d="M254.295,419.284H107.453c-7.728,0-14.004,6.209-14.132,13.907h144.491
	c7.809,0,14.144,6.336,14.144,14.144v22.19c0,0.08-0.01,0.158-0.012,0.237h2.351c7.809,0,14.144-6.336,14.144-14.144v-22.19
	C268.439,425.619,262.104,419.284,254.295,419.284z"/>
<g>
	<path style="fill:#D8A013;" d="M213.84,160.399v50.788h-32.966v-50.788c0-4.955,4.007-8.963,8.963-8.963h15.041
		C209.832,151.437,213.84,155.444,213.84,160.399z"/>
	<path style="fill:#D8A013;" d="M180.874,160.399v50.788h-32.966v-50.788c0-4.955,4.007-8.963,8.963-8.963h15.041
		C176.867,151.437,180.874,155.444,180.874,160.399z"/>
</g>
<path style="fill:#B7B4A1;" d="M139.667,0.036C139.429,0.018,139.189,0,138.946,0h-15.041c-4.955,0-8.963,4.007-8.963,8.963v202.225
	h16.483V8.963C131.425,4.251,135.051,0.404,139.667,0.036z"/>
<g>
	<path style="fill:#C68E10;" d="M238.564,151.473c-0.238-0.02-0.478-0.036-0.721-0.036h-15.041c-4.955,0-8.963,4.007-8.963,8.963
		v50.788h16.483v-50.788C230.323,155.687,233.948,151.84,238.564,151.473z"/>
	<path style="fill:#C68E10;" d="M205.598,151.473c-0.238-0.02-0.478-0.036-0.721-0.036h-15.041c-4.955,0-8.963,4.007-8.963,8.963
		v50.788h16.483v-50.788C197.357,155.687,200.982,151.84,205.598,151.473z"/>
	<path style="fill:#C68E10;" d="M172.633,151.473c-0.238-0.02-0.478-0.036-0.721-0.036h-15.041c-4.955,0-8.963,4.007-8.963,8.963
		v50.788h16.483v-50.788C164.391,155.687,168.016,151.84,172.633,151.473z"/>
</g>
<path style="fill:#D8A013;" d="M138.946,0h-15.041c-4.955,0-8.963,4.007-8.963,8.963v50.061h32.966V8.963
	C147.908,4.007,143.901,0,138.946,0z"/>
<path style="fill:#C68E10;" d="M131.425,8.963c0-4.711,3.625-8.559,8.241-8.927C139.428,0.018,139.189,0,138.946,0h-15.041
	c-4.955,0-8.963,4.007-8.963,8.963v50.061h16.483C131.425,59.023,131.425,8.963,131.425,8.963z"/>
<path style="fill:#DDDDDD;" d="M449.597,395.803v100.219c0,8.54-6.923,15.463-15.463,15.463h-50.757
	c-8.54,0-15.463-6.923-15.463-15.463V392.767h78.647C448.238,392.767,449.597,394.126,449.597,395.803z"/>
<path style="fill:#C9C0BD;" d="M404.889,496.022V392.767h-36.975v103.255c0,8.54,6.923,15.463,15.463,15.463h36.975
	C411.813,511.485,404.889,504.562,404.889,496.022z"/>
<path style="fill:#757574;" d="M368.46,316.184v77.129h-17.699c-10.674,0-19.326-8.652-19.326-19.326v-43.031
	c0-10.674,8.652-19.326,19.326-19.326h13.144C366.421,311.63,368.46,313.668,368.46,316.184z"/>
<path style="fill:#EA3B18;" d="M447.897,268.465c0.834,18.378-9.169,26.682-18.183,30.432c-7.211,2.988-15.35,2.833-22.52-0.258
	c-2.442-1.051-4.605-2.102-6.531-3.132c-10.199-5.46-16.627-16.091-16.524-27.66c0.041-4.893,0.907-8.777,2.05-11.796
	c1.731-4.512,5.13-8.221,9.447-10.395c17.933-9.015,19.862-21.716,19.199-29.076c-0.18-2.004,2.352-3.019,3.644-1.476
	c7.336,8.76,12.311,25.203,2.83,36.094c-6.068,6.985-5.645,11.6-3.884,14.392c1.988,3.173,6.099,4.399,9.539,2.926
	c4.471-1.916,5.161-7.335,4.78-12.166c-0.371-4.522,4.852-7.304,8.344-4.399c1.597,1.339,2.874,2.833,3.884,4.327
	C446.403,259.873,447.701,264.128,447.897,268.465z"/>
<path style="fill:#DD2C10;" d="M426.63,281.83c-2.442-1.051-4.605-2.102-6.531-3.132c-10.199-5.46-16.627-16.091-16.524-27.66
	c0.041-4.893,0.907-8.777,2.05-11.796c0.062-0.161,0.141-0.313,0.207-0.472c-2.627,2.422-5.961,4.757-10.196,6.887
	c-4.316,2.174-7.716,5.882-9.447,10.395c-1.143,3.018-2.009,6.902-2.05,11.796c-0.103,11.569,6.325,22.2,16.524,27.66
	c1.926,1.03,4.09,2.081,6.531,3.132c7.17,3.091,15.308,3.245,22.52,0.258c6.116-2.545,12.685-7.191,16.016-15.654
	C439.434,284.948,432.687,284.441,426.63,281.83z"/>
<path style="fill:#5B5B59;" d="M363.905,311.63H350.76c-0.275,0-0.542,0.03-0.814,0.041v81.601c0.272,0.011,0.539,0.041,0.814,0.041
	h17.699v-77.129C368.46,313.668,366.421,311.63,363.905,311.63z"/>
<g>
</g>
<g>
</g>
<g>
</g>
<g>
</g>
<g>
</g>
<g>
</g>
<g>
</g>
<g>
</g>
<g>
</g>
<g>
</g>
<g>
</g>
<g>
</g>
<g>
</g>
<g>
</g>
<g>
</g>
</svg>
