<svg id="Capa_1" enable-background="new 0 0 512 512" height="512" viewBox="0 0 512 512" width="512" xmlns="http://www.w3.org/2000/svg"><g><path d="m512 256c0 22.091-2.798 43.529-8.06 63.978-35.717 8.677-80.046 16.572-92.845 37.657-10.705 17.637 14.59 50.749 25.914 79.394-46.326 46.321-110.322 74.971-181.009 74.971-141.385 0-256-114.615-256-256s114.615-256 256-256 256 114.615 256 256z" fill="#dd5790"/><path d="m362.398 63.12c-2.398-22.391-20.535-39.765-43.013-41.116-89.999-5.41-179.997-5.41-269.996 0-22.477 1.351-40.613 18.725-43.012 41.116-5.895 55.019-5.895 110.039 0 165.058 2.399 22.391 20.535 39.765 43.013 41.116 5.514.331 11.028.641 16.542.932l-6.358 53.108c-.826 6.901 7.062 11.394 12.576 7.162l74.88-57.466c57.452.956 114.904-.283 172.356-3.736 22.478-1.352 40.614-18.726 43.013-41.116 5.894-55.02 5.894-110.039-.001-165.058z" fill="#cbe2ff"/><g fill="#407093"><path d="m307.547 103.892h-246.318c-7.656 0-13.863-6.207-13.863-13.863 0-7.656 6.207-13.863 13.863-13.863h246.318c7.656 0 13.863 6.207 13.863 13.863-.001 7.656-6.207 13.863-13.863 13.863z"/><path d="m307.547 158.605h-246.318c-7.656 0-13.863-6.207-13.863-13.863 0-7.656 6.207-13.863 13.863-13.863h246.318c7.656 0 13.863 6.207 13.863 13.863-.001 7.657-6.207 13.863-13.863 13.863z"/><path d="m253.569 213.319h-192.34c-7.656 0-13.863-6.207-13.863-13.863 0-7.656 6.207-13.863 13.863-13.863h192.34c7.656 0 13.863 6.207 13.863 13.863-.001 7.656-6.207 13.863-13.863 13.863z"/></g><path d="m499.53 244.76c-2.22-20.74-19.03-36.84-39.85-38.09-83.39-5.01-166.78-5.01-250.16 0-20.83 1.25-37.64 17.35-39.86 38.09-5.46 50.98-5.46 101.96 0 152.94 2.22 20.74 19.03 36.84 39.86 38.09 9.936.599 19.871 1.122 29.806 1.578l62.676 48.1c4.588 3.521 11.15-.217 10.463-5.958l-4.804-40.131c43.116.559 86.233-.222 129.349-2.349 31.57-31.57 54.93-71.34 66.61-115.84 0-25.48-1.36-50.95-4.09-76.43z" fill="#ddeafb"/><g fill="#407093"><path d="m457.751 278.726h-246.317c-7.656 0-13.863-6.207-13.863-13.863 0-7.656 6.207-13.863 13.863-13.863h246.318c7.656 0 13.863 6.207 13.863 13.863-.001 7.656-6.207 13.863-13.864 13.863z"/><path d="m457.751 333.439h-246.317c-7.656 0-13.863-6.207-13.863-13.863 0-7.656 6.207-13.863 13.863-13.863h246.318c7.656 0 13.863 6.207 13.863 13.863-.001 7.657-6.207 13.863-13.864 13.863z"/><path d="m344.659 388.153h-133.225c-7.656 0-13.863-6.207-13.863-13.863 0-7.656 6.207-13.863 13.863-13.863h133.225c7.656 0 13.863 6.207 13.863 13.863-.001 7.656-6.207 13.863-13.863 13.863z"/></g></g></svg>